ply
format ascii 1.0
comment Created by Blender 2.79 (sub 0) - www.blender.org, source file: ''
element vertex 40
property float x
property float y
property float z
property float nx
property float ny
property float nz
element face 13
property list uchar uint vertex_indices
end_header
-0.085772 0.036045 0.085772 -0.000000 1.000000 -0.000000
0.085772 0.036045 0.085772 -0.000000 1.000000 -0.000000
0.033353 0.036045 0.033353 -0.000000 1.000000 -0.000000
-0.033353 0.036045 0.033353 -0.000000 1.000000 -0.000000
0.085772 0.036045 -0.085772 -0.000000 1.000000 -0.000000
0.033353 0.036045 -0.033353 -0.000000 1.000000 -0.000000
0.000000 -0.089577 0.000000 -0.825858 -0.563879 -0.000000
-0.085772 0.036045 0.085772 -0.825858 -0.563879 -0.000000
-0.085772 0.036045 -0.085772 -0.825858 -0.563879 -0.000000
0.000000 -0.089577 0.000000 0.000001 -0.563878 -0.825858
-0.085772 0.036045 -0.085772 0.000001 -0.563878 -0.825858
0.085772 0.036045 -0.085772 0.000001 -0.563878 -0.825858
0.000000 -0.089577 0.000000 0.825858 -0.563878 0.000000
0.085772 0.036045 -0.085772 0.825858 -0.563878 0.000000
0.085772 0.036045 0.085772 0.825858 -0.563878 0.000000
-0.085772 0.036045 0.085772 -0.000000 -0.563878 0.825858
0.000000 -0.089577 0.000000 -0.000000 -0.563878 0.825858
0.085772 0.036045 0.085772 -0.000000 -0.563878 0.825858
0.033353 0.036045 -0.033353 0.000001 -0.190578 -0.981672
-0.033353 0.036045 -0.033353 0.000001 -0.190578 -0.981672
-0.053328 0.138933 -0.053328 0.000001 -0.190578 -0.981672
0.053328 0.138933 -0.053328 0.000001 -0.190578 -0.981672
-0.085772 0.036045 -0.085772 -0.000000 1.000000 -0.000000
-0.033353 0.036045 -0.033353 -0.000000 1.000000 -0.000000
-0.053328 0.138933 0.053328 -0.000000 1.000000 -0.000000
0.053328 0.138933 0.053328 -0.000000 1.000000 -0.000000
0.053328 0.138933 -0.053328 -0.000000 1.000000 -0.000000
-0.053328 0.138933 -0.053328 -0.000000 1.000000 -0.000000
-0.033353 0.036045 0.033353 -0.000000 -0.190577 0.981672
0.033353 0.036045 0.033353 -0.000000 -0.190577 0.981672
0.053328 0.138933 0.053328 -0.000000 -0.190577 0.981672
-0.053328 0.138933 0.053328 -0.000000 -0.190577 0.981672
0.033353 0.036045 0.033353 0.981672 -0.190577 0.000000
0.033353 0.036045 -0.033353 0.981672 -0.190577 0.000000
0.053328 0.138933 -0.053328 0.981672 -0.190577 0.000000
0.053328 0.138933 0.053328 0.981672 -0.190577 0.000000
-0.033353 0.036045 -0.033353 -0.981672 -0.190578 -0.000001
-0.033353 0.036045 0.033353 -0.981672 -0.190578 -0.000001
-0.053328 0.138933 0.053328 -0.981672 -0.190578 -0.000001
-0.053328 0.138933 -0.053328 -0.981672 -0.190578 -0.000001
4 0 1 2 3
4 1 4 5 2
3 6 7 8
3 9 10 11
3 12 13 14
3 15 16 17
4 18 19 20 21
4 4 22 23 5
4 22 0 3 23
4 24 25 26 27
4 28 29 30 31
4 32 33 34 35
4 36 37 38 39
