ply
format ascii 1.0
comment Created by Blender 2.79 (sub 0) - www.blender.org, source file: 'camera.blend'
element vertex 16
property float x
property float y
property float z
property float nx
property float ny
property float nz
element face 5
property list uchar uint vertex_indices
end_header
0.000000 0.000000 1.000000 0.000000 -0.894427 0.447214
-1.000000 -1.000000 -0.999999 0.000000 -0.894427 0.447214
1.000000 -1.000000 -1.000000 0.000000 -0.894427 0.447214
0.000000 0.000000 1.000000 -0.000000 0.894427 0.447214
1.000000 1.000000 -1.000000 -0.000000 0.894427 0.447214
-1.000000 1.000000 -1.000000 -0.000000 0.894427 0.447214
0.000000 0.000000 1.000000 -0.894427 0.000000 0.447214
-1.000000 1.000000 -1.000000 -0.894427 0.000000 0.447214
-1.000000 -1.000000 -0.999999 -0.894427 0.000000 0.447214
-1.000000 -1.000000 -0.999999 -0.000000 -0.000000 -1.000000
-1.000000 1.000000 -1.000000 -0.000000 -0.000000 -1.000000
1.000000 1.000000 -1.000000 -0.000000 -0.000000 -1.000000
1.000000 -1.000000 -1.000000 -0.000000 -0.000000 -1.000000
1.000000 -1.000000 -1.000000 0.894427 -0.000000 0.447213
1.000000 1.000000 -1.000000 0.894427 -0.000000 0.447213
0.000000 0.000000 1.000000 0.894427 -0.000000 0.447213
3 0 1 2
3 3 4 5
3 6 7 8
4 9 10 11 12
3 13 14 15
